<svg width="66" height="87" viewBox="0 0 66 87" fill="none" xmlns="http://www.w3.org/2000/svg">
<g clip-path="url(#clip0_1_2551)">
<path d="M26.7987 63.0717L54.9807 70.6231M12.4548 74.331L75.8643 91.3215M51.205 84.714C57.745 86.4664 64.7134 85.549 70.577 82.1637C76.4406 78.7783 80.7193 73.2023 82.4717 66.6622C84.2241 60.1222 83.3067 53.1539 79.9213 47.2902C76.5359 41.4266 70.9599 37.148 64.4199 35.3956L60.8971 34.4516M41.1426 51.8125L48.1881 53.7003M59.2622 26.4622L62.094 15.894C62.3443 14.9597 62.2132 13.9642 61.7296 13.1266C61.246 12.2889 60.4494 11.6777 59.5151 11.4273L52.4696 9.53948C51.5353 9.28914 50.5399 9.4202 49.7022 9.90382C48.8645 10.3874 48.2533 11.184 48.003 12.1183L45.1712 22.6866M43.0304 44.767C41.1619 44.2663 39.5687 43.0438 38.6015 41.3685C37.6342 39.6932 37.3721 37.7022 37.8728 35.8336L41.6485 21.7426L62.7849 27.4061L59.0093 41.4971C58.5086 43.3657 57.2861 44.9589 55.6108 45.9261C53.9355 46.8934 51.9445 47.1555 50.0759 46.6548L43.0304 44.767Z" stroke="#D7F0EE" stroke-linecap="round" stroke-linejoin="round"/>
</g>
<defs>
<clipPath id="clip0_1_2551">
<rect width="87.5284" height="87.5284" fill="white" transform="translate(22.6527 -6.00122) rotate(15)"/>
</clipPath>
</defs>
</svg>
