<svg width="44" height="44" viewBox="0 0 44 44" fill="none" xmlns="http://www.w3.org/2000/svg">
<rect width="44" height="44" rx="8" fill="#3E989A"/>
<path d="M32.0001 26.9201V29.9201C32.0012 30.1986 31.9441 30.4743 31.8326 30.7294C31.721 30.9846 31.5574 31.2137 31.3521 31.402C31.1469 31.5902 30.9046 31.7336 30.6408 31.8228C30.377 31.912 30.0974 31.9452 29.8201 31.9201C26.7429 31.5857 23.7871 30.5342 21.1901 28.8501C18.7739 27.3148 16.7254 25.2663 15.1901 22.8501C13.5 20.2413 12.4483 17.2711 12.1201 14.1801C12.0951 13.9036 12.1279 13.6249 12.2166 13.3617C12.3052 13.0986 12.4476 12.8568 12.6348 12.6517C12.822 12.4466 13.0499 12.2828 13.3038 12.1706C13.5578 12.0584 13.8324 12.0004 14.1101 12.0001H17.1101C17.5954 11.9953 18.0658 12.1672 18.4338 12.4836C18.8018 12.8001 19.0421 13.2395 19.1101 13.7201C19.2367 14.6802 19.4715 15.6228 19.8101 16.5301C19.9446 16.888 19.9737 17.277 19.894 17.651C19.8142 18.0249 19.6289 18.3682 19.3601 18.6401L18.0901 19.9101C19.5136 22.4136 21.5865 24.4865 24.0901 25.9101L25.3601 24.6401C25.6319 24.3712 25.9752 24.1859 26.3492 24.1062C26.7231 24.0264 27.1121 24.0556 27.4701 24.1901C28.3773 24.5286 29.32 24.7635 30.2801 24.8901C30.7658 24.9586 31.2095 25.2033 31.5266 25.5776C31.8437 25.9519 32.0122 26.4297 32.0001 26.9201Z" stroke="#F5F6F6" stroke-linecap="round" stroke-linejoin="round"/>
</svg>
